# xmcd
#
# Track frame offsets: 
#        150
#        12629
#        25857
#        39664
#        51090
#        62745
#        76875
#        89947
#        102261
#        111893
#        122580
#        135912
#        148803
#        160694
#        171244
#        186301
#        197833
#        209294
#
# Disc length: 2958 seconds
#
# Revision: 0
# Processed by: cddbd v1.5.2PL0 Copyright (c) Steve Scherf et al.
# Submitted via: ExactAudioCopy v0.99pb4
#
DISCID=020b8c12
DTITLE=Various Artist - 60s Deep Soul
DYEAR=2007
DGENRE=Soul
TTITLE0=Everybody Needs Somebody To Love - Solomon Burke
TTITLE1=Seesaw - Dan Covay and The Goodtimers
TTITLE2=Knock On Wood - Eddie Floyd
TTITLE3=Barefootin' - Robert Parker
TTITLE4=Walking The Dog - Rufus Thomas
TTITLE5=Mustang Sally - Wilson Pickett
TTITLE6=Ride Your Pony - Lee Dorsey
TTITLE7=Tell It Like It Is - Aaron Neville
TTITLE8=Papa's Got A Brand New Bag - James Brown and the Famous Flames
TTITLE9=Sweet Soul Music - Arthur Conley
TTITLE10=Show Me - Joe Tex
TTITLE11=When A Man Loves A Woman - Percy Sledge
TTITLE12=Soul Man - Sam and Dave
TTITLE13=Shout Bamalama - Mickey Murray
TTITLE14=Try A Little Tenderness - Otis Redding
TTITLE15=The Dark End Of The Street - James Carr
TTITLE16=Slip Away - Clarence Carter
TTITLE17=Who's Making Love - Johnnie Taylor
EXTD=
EXTT0=
EXTT1=
EXTT2=
EXTT3=
EXTT4=
EXTT5=
EXTT6=
EXTT7=
EXTT8=
EXTT9=
EXTT10=
EXTT11=
EXTT12=
EXTT13=
EXTT14=
EXTT15=
EXTT16=
EXTT17=
PLAYORDER=
